G04 Layer_Color=8421504*
%FSLAX24Y24*%
%MOIN*%
G70*
G01*
G75*
%ADD10R,0.0591X0.1260*%
%ADD11R,0.0300X0.0300*%
%ADD12R,0.0394X0.0433*%
%ADD13R,0.0300X0.0300*%
%ADD14O,0.0118X0.0709*%
%ADD15O,0.0709X0.0118*%
G04:AMPARAMS|DCode=16|XSize=150mil|YSize=65mil|CornerRadius=0mil|HoleSize=0mil|Usage=FLASHONLY|Rotation=90.000|XOffset=0mil|YOffset=0mil|HoleType=Round|Shape=Octagon|*
%AMOCTAGOND16*
4,1,8,0.0163,0.0750,-0.0163,0.0750,-0.0325,0.0588,-0.0325,-0.0588,-0.0163,-0.0750,0.0163,-0.0750,0.0325,-0.0588,0.0325,0.0588,0.0163,0.0750,0.0*
%
%ADD16OCTAGOND16*%

%ADD17O,0.0650X0.1500*%
%ADD18R,0.1000X0.1000*%
%ADD19R,0.0512X0.0591*%
%ADD20R,0.0591X0.0787*%
%ADD21R,0.0433X0.0394*%
%ADD22R,0.0512X0.0630*%
%ADD23R,0.1181X0.0591*%
D10*
X38228Y41454D02*
D03*
Y39252D02*
D03*
D11*
X40130Y42090D02*
D03*
X40129Y41545D02*
D03*
D12*
X41365Y39251D02*
D03*
Y39920D02*
D03*
X40208Y39251D02*
D03*
Y39920D02*
D03*
X43898Y39276D02*
D03*
Y39945D02*
D03*
X42820Y39251D02*
D03*
Y39920D02*
D03*
X31150Y31840D02*
D03*
Y32509D02*
D03*
X31120Y29251D02*
D03*
Y29920D02*
D03*
X35948Y34654D02*
D03*
Y35324D02*
D03*
X46102Y10394D02*
D03*
Y9724D02*
D03*
X47518Y9729D02*
D03*
Y10398D02*
D03*
D13*
X34875Y37279D02*
D03*
X34330Y37280D02*
D03*
D14*
X39076Y33355D02*
D03*
X39272Y33355D02*
D03*
X39469D02*
D03*
X39469Y27410D02*
D03*
X39272D02*
D03*
X39076D02*
D03*
X34745Y33355D02*
D03*
X34942D02*
D03*
X35138D02*
D03*
X35335D02*
D03*
X35532D02*
D03*
X35729D02*
D03*
X35926D02*
D03*
X36123D02*
D03*
X36320D02*
D03*
X36516D02*
D03*
X36713D02*
D03*
X36910D02*
D03*
X37107D02*
D03*
X37304D02*
D03*
X37501D02*
D03*
X37698D02*
D03*
X37894D02*
D03*
X38091D02*
D03*
X38288D02*
D03*
X38485D02*
D03*
X38682D02*
D03*
X38879D02*
D03*
Y27410D02*
D03*
X38682D02*
D03*
X38485D02*
D03*
X38288D02*
D03*
X38091D02*
D03*
X37894D02*
D03*
X37698D02*
D03*
X37501D02*
D03*
X37304D02*
D03*
X37107Y27410D02*
D03*
X36910D02*
D03*
X36713Y27410D02*
D03*
X36516D02*
D03*
X36320D02*
D03*
X36123D02*
D03*
X35926D02*
D03*
X35729Y27410D02*
D03*
X35532D02*
D03*
X35335Y27410D02*
D03*
X35139D02*
D03*
X34942D02*
D03*
X34745D02*
D03*
D15*
X40079Y32744D02*
D03*
Y32547D02*
D03*
Y32351D02*
D03*
Y32154D02*
D03*
Y31957D02*
D03*
Y31760D02*
D03*
Y31563D02*
D03*
Y31366D02*
D03*
Y31170D02*
D03*
X40079Y30973D02*
D03*
Y30776D02*
D03*
X40079Y30579D02*
D03*
Y30382D02*
D03*
Y30185D02*
D03*
Y29988D02*
D03*
Y29792D02*
D03*
X40079Y29595D02*
D03*
Y29398D02*
D03*
Y29201D02*
D03*
X40079Y29004D02*
D03*
Y28807D02*
D03*
Y28610D02*
D03*
Y28414D02*
D03*
Y28217D02*
D03*
X40079Y28020D02*
D03*
X34135D02*
D03*
Y28217D02*
D03*
Y28414D02*
D03*
Y28610D02*
D03*
Y28807D02*
D03*
Y29004D02*
D03*
Y29201D02*
D03*
Y29398D02*
D03*
Y29595D02*
D03*
Y29792D02*
D03*
Y29988D02*
D03*
Y30185D02*
D03*
Y30382D02*
D03*
Y30579D02*
D03*
Y30776D02*
D03*
Y30973D02*
D03*
Y31170D02*
D03*
Y31366D02*
D03*
Y31563D02*
D03*
Y31760D02*
D03*
Y31957D02*
D03*
Y32154D02*
D03*
Y32351D02*
D03*
Y32547D02*
D03*
Y32744D02*
D03*
D16*
X33409Y39372D02*
D03*
D17*
X35409D02*
D03*
X34409D02*
D03*
D18*
X34409Y41772D02*
D03*
D19*
X23459Y49157D02*
D03*
X24207Y49157D02*
D03*
X23459Y46947D02*
D03*
X24207Y46947D02*
D03*
X50358Y49539D02*
D03*
X49610Y49539D02*
D03*
X50358Y47313D02*
D03*
X49610Y47313D02*
D03*
D20*
X50517Y9586D02*
D03*
Y6515D02*
D03*
D21*
X27356Y47168D02*
D03*
X26686D02*
D03*
X27370Y45250D02*
D03*
X26701D02*
D03*
X46824Y47272D02*
D03*
X47494D02*
D03*
X46854Y45302D02*
D03*
X47524D02*
D03*
D22*
X29292Y29962D02*
D03*
X29332Y31458D02*
D03*
X30198D02*
D03*
Y29962D02*
D03*
D23*
X47520Y12402D02*
D03*
Y14602D02*
D03*
X47450Y16330D02*
D03*
Y18530D02*
D03*
M02*
