M48
;Layer_Color=9474304
;FILE_FORMAT=2:4
INCH,LZ
;TYPE=PLATED
T1F00S00C0.0120
T2F00S00C0.0354
T3F00S00C0.1220
%
T01
X02804Y01398
X044828Y01315
X043934Y009724
X04716Y02831
X04752
X051148Y030102
X04525Y03061
X04493
X04369Y03062
X04263Y03057
X04242Y02719
X0428Y02715
X04042Y02734
X04078Y02515
X04112Y02516
X0408Y0238
X04157Y02013
X04211Y01874
X04363Y02176
X04548Y02254
X04495Y02524
X04454Y0252
X04628Y02806
X04666
X03513Y02639
X03476Y02634
X03443Y02633
Y0252
X03477Y02522
X03443Y02426
X03395Y02391
X03212Y02346
X03179Y02362
X03145Y02398
X03182Y02195
X033033Y020643
X03302Y01866
X03549Y02106
X03548Y02241
X03336Y0291
X03279Y03034
X03272Y03104
X03336Y03107
X03171Y02992
X02916Y02796
X02915Y02697
X02807
X027472Y026972
X02755Y02798
X0281Y02796
X025288Y027972
X025202Y026972
X02586Y02508
X02612Y02426
X02653Y02364
X02717Y02287
X02954Y0221
X02984Y02209
X03107Y02435
X02954Y01789
X022997Y021643
X02302Y03057
X02288Y03306
X02265Y03502
X02498Y04442
X02486Y0448
X02798Y04525
X0331Y04608
X0333Y036735
X03194Y03643
X03246Y03548
X03357Y03524
X03379Y03399
X03475Y03431
X03535Y03491
X0367Y0362
X03672Y03652
X03603Y03782
X03498Y03814
X03802Y03505
X03811Y0347
X03832Y03447
X03777Y03446
X03751Y03427
X03868Y03424
X03944Y0344
X04175Y03521
X04174Y03565
X04263Y03659
X0437Y03687
X04553Y03683
X04534Y03718
X04578Y03646
X04581Y03602
X04628Y03569
X04667Y03568
Y0368
X04628
X04403Y04132
X03996Y0432
X040716Y032154
X033335Y03173
X03221Y03241
X03246Y03302
X04715Y03505
X04753Y03503
X04916Y03603
X04913Y03644
X05085Y0342
X05083Y03907
T02
X02383Y007424
Y008424
Y009424
Y010424
Y013034
Y014034
Y015034
X05008Y01542
Y01442
X05108
Y01542
X051102Y012827
Y011827
Y010827
X050102
Y011827
Y012827
X05008Y01642
X05108
X050118Y01848
Y01948
Y02048
Y02148
Y02248
Y02348
Y025102
Y026102
Y027102
Y028102
Y029102
Y030102
X03848Y023189
X03748
X03648
X03548
X02383Y022643
Y021643
Y020643
Y019643
Y018643
Y016034
Y024972
Y025972
Y026972
Y027972
Y030581
Y031581
Y032581
Y033581
Y036191
Y037191
Y038191
Y039191
Y0418
Y0428
Y0438
Y0448
X03771Y03724
X03871
X03971
X04071
X05009Y03709
Y03809
Y03909
Y04009
Y04198
Y04298
Y04398
Y04498
X05011Y03521
Y03421
Y03321
Y03221
T03
X027165Y007441
X046968
X045669Y019685
X028346
Y041339
X045669
X046968Y049606
X027165Y049606
M30
