G04 Layer_Color=16711935*
%FSLAX24Y24*%
%MOIN*%
G70*
G01*
G75*
%ADD57R,0.0641X0.0641*%
%ADD58C,0.0641*%
%ADD59R,0.0641X0.0641*%
%ADD60C,0.1625*%
%ADD61C,0.1743*%
%ADD62C,0.0290*%
D57*
X50090Y41980D02*
D03*
X50110Y35210D02*
D03*
X50090Y40090D02*
D03*
X23830Y41800D02*
D03*
Y36191D02*
D03*
Y27972D02*
D03*
Y13034D02*
D03*
Y18643D02*
D03*
Y30581D02*
D03*
Y7424D02*
D03*
X50118Y18480D02*
D03*
X51102Y10827D02*
D03*
X51080Y14420D02*
D03*
X50118Y25102D02*
D03*
D58*
X50090Y42980D02*
D03*
Y43980D02*
D03*
Y44980D02*
D03*
X50110Y32210D02*
D03*
Y33210D02*
D03*
Y34210D02*
D03*
X50090Y37090D02*
D03*
Y38090D02*
D03*
Y39090D02*
D03*
X23830Y44800D02*
D03*
Y43800D02*
D03*
Y42800D02*
D03*
Y39191D02*
D03*
Y38191D02*
D03*
Y37191D02*
D03*
Y24972D02*
D03*
Y25972D02*
D03*
Y26972D02*
D03*
Y16034D02*
D03*
Y15034D02*
D03*
Y14034D02*
D03*
Y19643D02*
D03*
Y20643D02*
D03*
Y21643D02*
D03*
Y22643D02*
D03*
Y33581D02*
D03*
Y32581D02*
D03*
Y31581D02*
D03*
Y10424D02*
D03*
Y9424D02*
D03*
Y8424D02*
D03*
X50118Y23480D02*
D03*
Y22480D02*
D03*
Y21480D02*
D03*
Y20480D02*
D03*
Y19480D02*
D03*
X50102Y10827D02*
D03*
X51102Y11827D02*
D03*
X50102D02*
D03*
X51102Y12827D02*
D03*
X50102D02*
D03*
X50080Y14420D02*
D03*
X51080Y15420D02*
D03*
X50080D02*
D03*
X51080Y16420D02*
D03*
X50080D02*
D03*
X38480Y23189D02*
D03*
X37480D02*
D03*
X36480D02*
D03*
X50118Y30102D02*
D03*
Y29102D02*
D03*
Y28102D02*
D03*
Y27102D02*
D03*
Y26102D02*
D03*
X37710Y37240D02*
D03*
X38710D02*
D03*
X39710D02*
D03*
D59*
X35480Y23189D02*
D03*
X40710Y37240D02*
D03*
D60*
X27165Y49606D02*
D03*
X46968Y49606D02*
D03*
Y7441D02*
D03*
X27165D02*
D03*
D61*
X28346Y19685D02*
D03*
X45669D02*
D03*
X28346Y41339D02*
D03*
X45669D02*
D03*
D62*
X35130Y26390D02*
D03*
X32790Y30340D02*
D03*
X32460Y33020D02*
D03*
X31710Y29920D02*
D03*
X50830Y39070D02*
D03*
X36700Y36200D02*
D03*
X51148Y30102D02*
D03*
X33300Y36735D02*
D03*
X44828Y13150D02*
D03*
X40800Y23800D02*
D03*
X40780Y25150D02*
D03*
X40716Y32154D02*
D03*
X32720Y31040D02*
D03*
X31940Y36430D02*
D03*
X32460Y35480D02*
D03*
X35490Y21060D02*
D03*
X41570Y20130D02*
D03*
X31820Y21950D02*
D03*
X50850Y34200D02*
D03*
X47530Y35030D02*
D03*
X44540Y25200D02*
D03*
X42420Y27190D02*
D03*
X42800Y27150D02*
D03*
X33570Y35240D02*
D03*
X47160Y28310D02*
D03*
X47520D02*
D03*
X35480Y22410D02*
D03*
X42630Y30570D02*
D03*
Y36590D02*
D03*
X43700Y36870D02*
D03*
X43690Y30620D02*
D03*
X44930Y30610D02*
D03*
X45340Y37180D02*
D03*
X45250Y30610D02*
D03*
X45530Y36830D02*
D03*
X49130Y36440D02*
D03*
X45780Y36460D02*
D03*
X41740Y35650D02*
D03*
X47150Y35050D02*
D03*
X49160Y36030D02*
D03*
X45810Y36020D02*
D03*
X41750Y35210D02*
D03*
X27980Y45250D02*
D03*
X46660Y28060D02*
D03*
X46280D02*
D03*
Y35690D02*
D03*
X46670Y35680D02*
D03*
X46280Y36800D02*
D03*
X46670D02*
D03*
X44030Y41320D02*
D03*
X39960Y43200D02*
D03*
X32120Y23460D02*
D03*
X26530Y23640D02*
D03*
X31790Y23620D02*
D03*
X26120Y24260D02*
D03*
X31450Y23980D02*
D03*
X25860Y25080D02*
D03*
X31070Y24350D02*
D03*
X38110Y34700D02*
D03*
X38320Y34470D02*
D03*
X38680Y34240D02*
D03*
X22650Y35020D02*
D03*
X22880Y33060D02*
D03*
X29540Y22100D02*
D03*
X29840Y22090D02*
D03*
X29540Y17890D02*
D03*
X28040Y13980D02*
D03*
X44950Y25240D02*
D03*
X32210Y32410D02*
D03*
X23020Y30570D02*
D03*
X25288Y27972D02*
D03*
X27550Y27980D02*
D03*
X28100Y27960D02*
D03*
X29160D02*
D03*
X25202Y26972D02*
D03*
X27472D02*
D03*
X28070Y26970D02*
D03*
X29150D02*
D03*
X33033Y20643D02*
D03*
X33950Y23910D02*
D03*
X34770Y25220D02*
D03*
X34430Y24260D02*
D03*
Y25200D02*
D03*
X39440Y34400D02*
D03*
X42110Y18740D02*
D03*
X41120Y25160D02*
D03*
X37510Y34270D02*
D03*
X38020Y35050D02*
D03*
X37770Y34460D02*
D03*
X36720Y36520D02*
D03*
X36030Y37820D02*
D03*
X33100Y46080D02*
D03*
X34980Y38140D02*
D03*
X34430Y26330D02*
D03*
X34760Y26340D02*
D03*
X40420Y27340D02*
D03*
X33020Y18660D02*
D03*
X45480Y22540D02*
D03*
X43630Y21760D02*
D03*
X22997Y21643D02*
D03*
X24860Y44800D02*
D03*
X24980Y44420D02*
D03*
X43934Y9724D02*
D03*
X34750Y34310D02*
D03*
X35350Y34910D02*
D03*
X27170Y22870D02*
D03*
X33790Y33990D02*
D03*
X33335Y31730D02*
D03*
X33360Y31070D02*
D03*
Y29100D02*
D03*
M02*
